<?xml version="1.0" encoding="UTF-8"?>
<svg id="Layer_1" data-name="Layer 1" xmlns="http://www.w3.org/2000/svg" viewBox="0 0 1280 1344.4323">
  <path fill="#7755FF" d="M1275.2846,430.6826l-221.6322-127.9823c-5.8367-3.3704-13.0283-3.3707-18.8653-.0007l-272.1716,157.1378V145.5971c0-6.7392-3.5952-12.9665-9.4314-16.3364L531.5322,1.2779c-6.288-3.6307-14.1484.9072-14.1484,8.1682l-.0011,450.3913-272.145-157.1234c-5.8365-3.3697-13.0272-3.3698-18.8638-.0002L4.7171,430.6819c-6.2881,3.6303-6.2882,12.7064-.0002,16.3368l390.0495,225.1958L4.716,897.4109c-6.2879,3.6303-6.288,12.706-.0003,16.3366l221.6419,127.9757c5.8366,3.3701,13.0278,3.3702,18.8646.0004l272.1606-157.1312v314.284c0,6.7402,3.5962,12.9682,9.4337,16.3377l221.6518,127.9411c6.288,3.6295,14.1472-.9085,14.1472-8.1688v-450.3939l272.1583,157.1312c5.8367,3.3699,13.0279,3.3697,18.8646-.0003l221.644-127.9752c6.2878-3.6305,6.2877-12.7063-.0002-16.3366l-390.0503-225.1963,390.0522-225.1962c6.2877-3.6302,6.2881-12.7057.0006-16.3364ZM762.6155,743.0071l-122.6164,70.7926-122.6164-70.7926v-141.5846l122.6164-70.7926,122.6164,70.7926v141.5846Z"/>
</svg>